<svg width="64" height="64" viewBox="0 0 64 64" fill="none" xmlns="http://www.w3.org/2000/svg">
<rect width="64" height="64" rx="32" fill="#FF5722"/>
<path fill-rule="evenodd" clip-rule="evenodd" d="M28.6666 32.737C32.3394 32.737 35.2834 29.7548 35.2834 26.0345C35.2834 22.3142 32.3394 19.332 28.6666 19.332C24.9939 19.332 22.0498 22.3142 22.0498 26.0345C22.0498 29.7548 24.9939 32.737 28.6666 32.737ZM28.6666 36.019C23.2723 36.019 18.6666 36.8815 18.6666 40.3272C18.6666 43.7718 23.2442 44.6654 28.6666 44.6654C34.0597 44.6654 38.6666 43.8028 38.6666 40.357C38.6666 36.9112 34.089 36.019 28.6666 36.019ZM42.5305 28.7825H44.1346C44.7949 28.7825 45.3333 29.3284 45.3333 29.998C45.3333 30.6675 44.7949 31.2135 44.1346 31.2135H42.5305V32.7832C42.5305 33.4528 41.9936 33.9987 41.332 33.9987C40.6717 33.9987 40.1333 33.4528 40.1333 32.7832V31.2135H38.532C37.8702 31.2135 37.3333 30.6675 37.3333 29.998C37.3333 29.3284 37.8702 28.7825 38.532 28.7825H40.1333V27.2142C40.1333 26.5446 40.6717 25.9987 41.332 25.9987C41.9936 25.9987 42.5305 26.5446 42.5305 27.2142V28.7825Z" fill="white"/>
</svg>
