<svg width="64" height="64" viewBox="0 0 64 64" fill="none" xmlns="http://www.w3.org/2000/svg">
<rect width="64" height="64" rx="32" fill="#F85E9F"/>
<path d="M44.5805 19.4439C43.9136 18.7594 42.9265 18.5044 42.0061 18.7728L20.544 25.014C19.5729 25.2838 18.8846 26.0582 18.6992 27.042C18.5098 28.0433 19.1714 29.3144 20.0357 29.8458L26.7465 33.9704C27.4348 34.3932 28.3231 34.2872 28.8927 33.7126L36.5772 25.9804C36.964 25.5777 37.6042 25.5777 37.9912 25.9804C38.378 26.3696 38.378 27.0004 37.9912 27.4031L30.2933 35.1368C29.7224 35.7098 29.6157 36.6024 30.0358 37.2949L34.1362 44.073C34.6164 44.8782 35.4434 45.3346 36.3504 45.3346C36.4572 45.3346 36.5772 45.3346 36.684 45.3212C37.7244 45.187 38.5513 44.4757 38.8581 43.469L45.2208 22.0344C45.5009 21.1217 45.2474 20.1285 44.5805 19.4439Z" fill="white"/>
</svg>
